# xmcd
#
# Track frame offsets:
#	150
#	11162
#	31415
#	49250
#	71934
#	88863
#	108673
#	128071
#	137568
#	160003
#	178278
#	190695
#	210015
#	228694
#	242560
#	262708
#	278326
#	301632
#	316140
#
# Disc length: 4406 seconds
#
# Revision: 3
# Processed by: cddbd v1.5.2PL0 Copyright (c) Steve Scherf et al.
# Submitted via: EasyCDDAExtractor 16.0.6.1
#
DISCID=fa113413
DTITLE=Romantic Collection - Tet-A-Tet
DYEAR=1900
DGENRE=Blues
TTITLE0=Dean Martin - Besame Mucho
TTITLE1=Tony Braxton - Un-break My Heart
TTITLE2=Nick Cave and PJ Harvey - Henry Lee
TTITLE3=Neneh Cherry and Youssou N`dour - 7 Seconds
TTITLE4=Mourandi Jiann - Space Opera
TTITLE5=Leonard Cochen - The Future
TTITLE6=Tanita Tikaram - And I Think Of You
TTITLE7=Charlie Haden - Every time We Say Goodbye
TTITLE8=Louis Armstrong and Ella Fitzgerald - Summertime
TTITLE9=Agnessa Franklin and Henry Merill - One More Kiss Dear
TTITLE10=Paul Anka - You Are My Destiny
TTITLE11=Birkin and Serge Gainsbourg - Je Taime... Moi Non Plus
TTITLE12=Patricia Kaas - Des Mensonges En Musique
TTITLE13=Fausto Papetti - Adagio Di Albioni
TTITLE14=Al Bano and Romina Power - Sharazan
TTITLE15=Shari Belafonte and Chris Norman - I Want To Be Needed
TTITLE16=Santa Esmeralda - You're My Everything
TTITLE17=Julio Iglesias - Historia De Un Amor
TTITLE18=Royal Philarmonic Orchestra - Besame Mucho
EXTD=
EXTT0=
EXTT1=
EXTT2=
EXTT3=
EXTT4=
EXTT5=
EXTT6=
EXTT7=
EXTT8=
EXTT9=
EXTT10=
EXTT11=
EXTT12=
EXTT13=
EXTT14=
EXTT15=
EXTT16=
EXTT17=
EXTT18=
PLAYORDER=
